<svg xmlns="http://www.w3.org/2000/svg" width="42" height="39" viewBox="0 0 42 39" fill="none">
  <path d="M15.9205 26.2902C15.9205 28.0365 14.4915 29.456 12.724 29.456C10.9565 29.456 9.52755 28.0365 9.52755 26.2902C9.52755 24.5438 10.9565 23.1243 12.724 23.1243C14.4915 23.1243 15.9205 24.5438 15.9205 26.2902Z" fill="#FF6C22" stroke="white" stroke-width="0.503519"/>
  <path d="M22.4978 12.6198C22.4978 14.1876 21.2141 15.4672 19.6197 15.4672C18.0254 15.4672 16.7416 14.1876 16.7416 12.6198C16.7416 11.0519 18.0254 9.77231 19.6197 9.77231C21.2141 9.77231 22.4978 11.0519 22.4978 12.6198Z" stroke="white" stroke-width="1.14032"/>
  <path fill-rule="evenodd" clip-rule="evenodd" d="M28.5821 16.8408H28.5979C30.3957 16.8441 31.9321 17.9614 32.5536 19.5393C31.8866 19.3383 31.1796 19.2294 30.4476 19.2275H30.408C27.8793 19.2341 25.6506 20.5166 24.3316 22.4652V21.0992C24.3316 18.75 26.2339 16.8451 28.5821 16.8408ZM23.0728 26.4448L23.0728 25.2596L23.0728 21.0992C23.0728 18.0552 25.5381 15.5869 28.581 15.582H28.599C31.3245 15.5864 33.5866 17.5671 34.0289 20.1676C36.2701 21.4282 37.784 23.8292 37.784 26.5837V26.6246C37.7272 30.6023 34.4851 33.8093 30.4939 33.8093H24.3303H23.0715V32.5505V26.5837C23.0715 26.5373 23.0719 26.491 23.0728 26.4448ZM34.0714 21.6942C35.5608 22.8059 36.5252 24.5822 36.5252 26.5837V26.6152C36.4737 29.9018 33.793 32.5505 30.4939 32.5505L24.3303 32.5505L24.3303 26.5837C24.3303 26.5619 24.3304 26.5401 24.3306 26.5184H24.3316H28.6407C31.4429 26.5184 33.7527 24.4107 34.0714 21.6942ZM32.8469 20.985C32.8479 21.0229 32.8484 21.061 32.8484 21.0992V21.172C32.7843 23.4401 30.9248 25.2596 28.6407 25.2596H24.4745C25.0779 22.5343 27.5049 20.4947 30.4097 20.4863H30.4458C31.2987 20.4887 32.1104 20.6663 32.8469 20.985Z" fill="white"/>
  <path d="M27.2067 37.9102L1.00001 37.9102L1.00001 13.3033" stroke="white" stroke-width="1.2588" stroke-linecap="round"/>
  <mask id="path-5-inside-1_234_13010" fill="white">
    <path fill-rule="evenodd" clip-rule="evenodd" d="M19.389 33.8093L11.9699 33.8093C7.94324 33.8093 4.67899 30.5451 4.67899 26.5184C4.67899 26.4332 4.68045 26.3482 4.68335 26.2636C4.85097 22.3494 8.07729 19.2275 12.0328 19.2275C16.0955 19.2275 19.389 22.5211 19.389 26.5838V33.8093Z"/>
  </mask>
  <path d="M19.389 33.8093V35.0681L20.6478 35.0681V33.8093H19.389ZM11.9699 33.8093L11.9699 35.0681L11.9699 33.8093ZM4.67899 26.5184H3.42019H4.67899ZM4.68335 26.2636L3.42566 26.2098L3.4253 26.2204L4.68335 26.2636ZM19.389 32.5505L11.9699 32.5505L11.9699 35.0681L19.389 35.0681V32.5505ZM11.9699 32.5505C8.63845 32.5505 5.93778 29.8499 5.93778 26.5184H3.42019C3.42019 31.2403 7.24802 35.0681 11.9699 35.0681L11.9699 32.5505ZM5.93778 26.5184C5.93778 26.4476 5.939 26.377 5.94141 26.3069L3.4253 26.2204C3.4219 26.3194 3.42019 26.4187 3.42019 26.5184H5.93778ZM5.941 26.3175C6.07989 23.074 8.75447 20.4863 12.0328 20.4863V17.9687C7.40012 17.9687 3.62204 21.6248 3.42571 26.2098L5.941 26.3175ZM12.0328 20.4863C15.4003 20.4863 18.1302 23.2163 18.1302 26.5838H20.6478C20.6478 21.8258 16.7907 17.9687 12.0328 17.9687V20.4863ZM18.1302 26.5838V33.8093H20.6478V26.5838H18.1302Z" fill="white" mask="url(#path-5-inside-1_234_13010)"/>
  <path d="M15.4606 26.5185C15.4606 28.3907 13.9287 29.9122 12.0342 29.9122C10.1398 29.9122 8.60787 28.3907 8.60787 26.5185C8.60787 24.6463 10.1398 23.1248 12.0342 23.1248C13.9287 23.1248 15.4606 24.6463 15.4606 26.5185Z" stroke="white" stroke-width="0.503519"/>
  <path d="M23.0691 37.9102H35.9648C38.7456 37.9102 41 35.6559 41 32.875V1H12.1687C8.28585 1 5.13818 4.14767 5.13818 8.03052V8.03052C5.13818 11.9134 8.28585 15.061 12.1687 15.061H15.8967" stroke="white" stroke-width="1.2588" stroke-linecap="round"/>
</svg>